<svg xmlns="http://www.w3.org/2000/svg" xmlns:xlink="http://www.w3.org/1999/xlink" width="500" zoomAndPan="magnify" viewBox="0 0 375 374.999991" height="500" preserveAspectRatio="xMidYMid meet" version="1.0"><defs><clipPath id="67a220b654"><path d="M 57 64.605469 L 296 64.605469 L 296 167 L 57 167 Z M 57 64.605469 " clip-rule="nonzero"/></clipPath><clipPath id="2bc33e353a"><path d="M 43.613281 128 L 331 128 L 331 295 L 43.613281 295 Z M 43.613281 128 " clip-rule="nonzero"/></clipPath><clipPath id="89c3302330"><path d="M 43.613281 180 L 331 180 L 331 295 L 43.613281 295 Z M 43.613281 180 " clip-rule="nonzero"/></clipPath><clipPath id="2acbcafb71"><path d="M 57 64.605469 L 296 64.605469 L 296 167 L 57 167 Z M 57 64.605469 " clip-rule="nonzero"/></clipPath></defs><g clip-path="url(#67a220b654)"><path fill="#303033" d="M 59.269531 138.285156 C 59.996094 138.902344 61.109375 139.117188 62.078125 139.40625 C 66.742188 140.824219 71.421875 142.207031 76.097656 143.601562 C 84.195312 145.324219 92.257812 147.230469 100.390625 148.738281 C 126.933594 153.664062 153.496094 158.457031 180.054688 163.265625 C 185.789062 164.300781 191.523438 165.570312 197.308594 166.011719 C 200.648438 166.269531 204.398438 165.765625 207.449219 164.433594 C 224.441406 156.984375 241.324219 149.289062 258.144531 141.453125 C 267.152344 137.253906 275.964844 132.613281 285.179688 127.941406 C 293.25 122.503906 295.703125 114.746094 295.734375 105.992188 C 295.757812 99.289062 292.632812 95.4375 286.621094 94.019531 C 286.023438 94.898438 285.609375 96.265625 284.796875 96.574219 C 284.742188 96.597656 284.6875 96.617188 284.632812 96.636719 C 284.6875 96.617188 284.742188 96.597656 284.796875 96.574219 C 285.609375 96.265625 286.023438 94.898438 286.503906 93.933594 C 286.105469 93.769531 285.824219 93.683594 285.277344 93.644531 C 280.914062 95.117188 276.757812 96.433594 272.710938 98.019531 C 276.757812 96.4375 280.910156 95.117188 285.121094 93.476562 C 274.648438 90.101562 264.175781 86.53125 253.476562 83.847656 C 228.761719 77.65625 203.90625 72 179.191406 65.878906 C 174.425781 64.707031 169.863281 64.605469 165.253906 65.800781 C 145.238281 70.996094 125.1875 76.066406 105.273438 81.625 C 92.167969 85.285156 79.269531 89.703125 66.285156 93.78125 C 64.390625 94.371094 62.59375 95.039062 64.148438 97.578125 C 65.898438 97.730469 67.707031 97.683594 69.445312 97.878906 C 67.699219 97.695312 65.878906 97.789062 64.113281 97.800781 C 64.234375 101.238281 67.378906 99.023438 68.746094 100.460938 C 69.507812 100.492188 70.042969 100.449219 70.53125 100.574219 C 81.136719 103.335938 91.707031 106.222656 102.339844 108.863281 C 120.554688 113.382812 138.8125 117.746094 157.050781 122.171875 C 168.734375 125.007812 180.457031 127.71875 192.097656 130.734375 C 200.46875 132.910156 205.089844 139.074219 205.027344 147.113281 C 205.082031 139.074219 200.460938 132.917969 192.097656 130.746094 C 180.457031 127.730469 168.738281 125.027344 157.050781 122.183594 C 138.8125 117.757812 120.554688 113.390625 102.339844 108.875 C 91.707031 106.234375 81.136719 103.347656 70.53125 100.585938 C 70.042969 100.460938 69.507812 100.503906 68.746094 100.710938 C 69.6875 106.371094 71.476562 111.742188 71.90625 117.21875 C 72.351562 122.804688 71.402344 128.457031 65.886719 131.949219 C 64.792969 132.644531 63.890625 133.640625 63.058594 134.664062 C 64.605469 135.089844 66.0625 135.484375 67.507812 135.792969 C 66.046875 135.484375 64.53125 135.082031 62.800781 134.660156 C 61.660156 134.4375 60.90625 134.195312 60.253906 134.363281 C 59.28125 134.609375 58.382812 135.148438 57.453125 135.558594 C 58.042969 136.488281 58.472656 137.605469 59.269531 138.285156 Z M 238.167969 113.9375 C 237.015625 114.359375 235.652344 114.234375 234.386719 114.359375 C 235.648438 114.234375 237.007812 114.359375 238.167969 113.9375 C 238.335938 113.875 238.503906 113.8125 238.675781 113.75 C 238.503906 113.8125 238.335938 113.875 238.167969 113.9375 Z M 110.21875 122.425781 C 114.496094 123.585938 118.828125 124.542969 123.09375 125.742188 C 130.558594 127.835938 137.972656 130.113281 145.445312 132.195312 C 150.054688 133.480469 154.726562 134.546875 159.539062 135.839844 C 163.265625 137.046875 166.863281 137.988281 170.359375 139.253906 C 173.339844 140.328125 176.566406 139.929688 179.523438 142.054688 C 182.203125 143.980469 186.066406 144.320312 189.449219 145.175781 C 189.550781 145.203125 189.65625 145.214844 189.761719 145.21875 C 189.652344 145.214844 189.546875 145.203125 189.445312 145.175781 C 186.058594 144.320312 182.195312 143.980469 179.515625 142.054688 C 176.5625 139.933594 173.335938 140.335938 170.351562 139.253906 C 166.863281 137.992188 163.265625 137.054688 159.710938 135.972656 C 154.726562 134.546875 150.054688 133.480469 145.441406 132.195312 C 137.96875 130.113281 130.554688 127.835938 123.085938 125.742188 C 118.824219 124.542969 114.488281 123.585938 110.214844 122.425781 C 109.429688 122.214844 108.773438 121.519531 108.058594 121.042969 C 108.800781 120.917969 109.574219 120.585938 110.273438 120.675781 C 109.574219 120.59375 108.796875 120.917969 108.0625 121.042969 C 108.78125 121.515625 109.433594 122.214844 110.21875 122.425781 Z M 113.25 121.203125 C 115.464844 121.605469 117.675781 122.042969 119.863281 122.5625 C 117.675781 122.046875 115.464844 121.609375 113.25 121.203125 Z M 150.734375 136.957031 C 149.945312 136.515625 149.179688 136.03125 148.359375 135.660156 C 147.820312 135.421875 147.203125 135.328125 146.617188 135.203125 C 143.339844 134.5 140.0625 133.777344 136.769531 133.140625 C 136.453125 133.078125 136.035156 133.527344 135.664062 133.746094 C 135.664062 133.746094 135.660156 133.742188 135.660156 133.742188 C 136.035156 133.53125 136.453125 133.074219 136.769531 133.136719 C 140.0625 133.773438 143.339844 134.492188 146.617188 135.199219 C 147.207031 135.324219 147.820312 135.414062 148.359375 135.65625 C 149.179688 136.027344 149.949219 136.515625 150.742188 136.957031 C 150.738281 136.957031 150.734375 136.957031 150.734375 136.957031 Z M 150.203125 136.976562 C 149.53125 137 148.855469 137.027344 148.183594 137.046875 C 145.136719 136.203125 142.191406 135.570312 139.277344 134.96875 C 142.1875 135.558594 145.113281 136.15625 148.089844 136.863281 C 148.835938 136.988281 149.523438 136.992188 150.203125 136.976562 Z M 132.121094 131.90625 C 131.609375 131.726562 131.113281 131.515625 130.59375 131.367188 C 129.09375 130.929688 127.613281 130.351562 126.082031 130.144531 C 124.851562 129.980469 123.566406 130.269531 122.300781 130.355469 C 122.296875 130.355469 122.292969 130.355469 122.289062 130.351562 C 123.558594 130.265625 124.847656 129.972656 126.082031 130.140625 C 127.613281 130.347656 129.09375 130.925781 130.59375 131.359375 C 131.117188 131.507812 131.613281 131.722656 132.125 131.90625 C 132.125 131.90625 132.121094 131.90625 132.121094 131.90625 Z M 128.558594 132.519531 C 127.519531 132.316406 126.488281 132.050781 125.453125 131.835938 C 125.378906 131.800781 125.308594 131.769531 125.238281 131.734375 C 126.421875 132.023438 127.503906 132.308594 128.558594 132.519531 Z M 202.335938 158.183594 C 203.457031 157.605469 203.976562 155.839844 204.761719 154.613281 C 204.742188 153.457031 204.558594 152.277344 204.65625 151.148438 C 204.5625 152.28125 204.769531 153.453125 204.980469 154.574219 C 205.4375 154.230469 205.75 153.960938 205.902344 153.605469 C 209.957031 145.167969 205.375 134.425781 197.226562 130.117188 C 205.390625 134.417969 209.976562 145.171875 205.925781 153.617188 C 205.761719 153.960938 205.449219 154.230469 204.992188 154.574219 C 203.980469 155.839844 203.46875 157.597656 202.34375 158.175781 C 201.082031 158.828125 199.671875 159.558594 198.273438 160.019531 C 199.667969 159.558594 201.074219 158.828125 202.335938 158.183594 Z M 187.515625 135.613281 C 187.230469 135.496094 186.945312 135.378906 186.660156 135.269531 C 186.945312 135.382812 187.230469 135.496094 187.515625 135.613281 Z M 185.90625 134.984375 C 185.597656 134.871094 185.285156 134.757812 184.96875 134.644531 C 185.285156 134.757812 185.597656 134.871094 185.90625 134.984375 Z M 180.832031 133.234375 C 178.023438 132.492188 175.359375 131.804688 172.730469 131.109375 C 175.398438 131.8125 178.074219 132.503906 180.746094 133.203125 C 180.773438 133.214844 180.804688 133.226562 180.832031 133.234375 Z M 101.210938 113.582031 C 101.488281 113.945312 101.695312 114.417969 102.054688 114.636719 C 102.566406 114.945312 103.195312 115.042969 103.765625 115.257812 C 108.878906 117.210938 114.507812 117.121094 119.585938 119.296875 C 121.492188 120.117188 123.691406 120.214844 125.703125 120.808594 C 132.53125 122.820312 139.320312 124.949219 146.15625 126.949219 C 158.203125 130.472656 170.273438 133.921875 182.324219 137.425781 C 183.953125 137.902344 185.496094 138.742188 187.148438 139 C 187.847656 139.117188 188.71875 138.175781 189.511719 137.710938 C 189.511719 137.710938 189.511719 137.710938 189.515625 137.710938 C 188.722656 138.175781 187.847656 139.117188 187.144531 139.007812 C 185.492188 138.742188 183.945312 137.90625 182.316406 137.433594 C 170.265625 133.925781 158.195312 130.476562 146.152344 126.957031 C 139.320312 124.957031 132.527344 122.824219 125.699219 120.816406 C 123.683594 120.21875 121.484375 120.117188 119.582031 119.304688 C 114.496094 117.125 108.871094 117.21875 103.757812 115.265625 C 103.191406 115.046875 102.558594 114.949219 102.046875 114.640625 C 101.6875 114.421875 101.480469 113.949219 101.203125 113.585938 C 101.207031 113.585938 101.210938 113.585938 101.210938 113.582031 Z M 101.765625 126.074219 C 101.148438 126.148438 100.503906 126.359375 99.90625 126.261719 C 94.910156 125.464844 89.910156 124.652344 84.933594 123.730469 C 84.304688 123.617188 83.792969 122.859375 83.226562 122.402344 C 83.226562 122.238281 83.226562 122.136719 83.226562 122.058594 C 88.949219 122.859375 94.597656 123.648438 100.21875 124.5625 C 100.804688 124.660156 101.257812 125.550781 101.765625 126.074219 Z M 100.027344 118.570312 C 99.71875 118.660156 99.386719 118.878906 99.105469 118.828125 C 95.558594 118.179688 92.015625 117.503906 88.476562 116.8125 C 88.242188 116.765625 88.050781 116.527344 87.839844 116.375 C 88.121094 116.214844 88.417969 115.902344 88.6875 115.925781 C 89.757812 116.027344 90.816406 116.234375 91.886719 116.40625 C 94.714844 117.011719 97.042969 117.488281 99.375 118.007812 C 99.621094 118.066406 99.808594 118.375 100.027344 118.570312 Z M 85.722656 109.210938 C 88.820312 109.871094 91.878906 110.746094 94.945312 111.566406 C 95.355469 111.675781 95.730469 111.925781 96.125 112.113281 C 95.667969 112.453125 95.246094 112.929688 94.738281 113.070312 C 94.339844 113.179688 93.832031 112.882812 93.371094 112.746094 C 90.066406 111.765625 86.753906 110.785156 83.449219 109.808594 C 83.9375 109.542969 84.90625 109.035156 85.722656 109.210938 Z M 68.988281 136.070312 C 68.75 136.03125 68.511719 135.992188 68.273438 135.945312 C 68.511719 135.992188 68.75 136.03125 68.988281 136.070312 Z M 68.988281 136.070312 " fill-opacity="1" fill-rule="nonzero"/></g><path fill="#303033" d="M 63.128906 185.332031 C 63.695312 185.625 64.070312 185.8125 64.460938 185.90625 C 90.988281 192.0625 117.519531 198.207031 144.050781 204.367188 C 160.597656 208.210938 177.140625 212.058594 193.679688 215.914062 C 197.496094 216.808594 201.546875 214.234375 202.691406 210.359375 C 204.378906 204.605469 203.363281 199.050781 201.761719 193.5 C 199.453125 184.835938 192.335938 183.621094 184.945312 182.292969 C 167.613281 179.164062 150.324219 175.824219 133.066406 172.324219 C 115.914062 168.84375 98.8125 165.113281 81.714844 161.367188 C 75.152344 159.929688 68.664062 158.136719 61.929688 156.730469 C 62.332031 158.246094 62.949219 159.546875 63.5625 160.847656 C 64.648438 161.15625 65.722656 161.527344 66.816406 161.808594 C 65.71875 161.53125 64.621094 161.183594 63.398438 160.96875 C 62.699219 162.597656 63.054688 163.617188 65.03125 163.832031 C 70.152344 164.648438 75.023438 165.46875 79.878906 166.375 C 89.515625 168.171875 99.15625 169.960938 108.769531 171.871094 C 114.867188 173.085938 120.917969 174.558594 127.007812 175.859375 C 131.730469 176.867188 136.476562 177.789062 141.214844 178.722656 C 141.304688 178.742188 141.398438 178.746094 141.492188 178.742188 C 141.394531 178.746094 141.296875 178.742188 141.203125 178.722656 C 136.464844 177.789062 131.71875 176.867188 126.996094 175.859375 C 120.910156 174.558594 114.859375 173.085938 108.757812 171.871094 C 99.144531 169.960938 89.503906 168.171875 79.867188 166.375 C 75.011719 165.464844 70.140625 164.648438 65.027344 164.089844 C 64.867188 164.980469 64.976562 165.578125 65.039062 166.171875 C 65.542969 171.121094 67.203125 176.09375 64.832031 181.230469 C 64.21875 182.703125 63.582031 183.945312 63.128906 185.332031 Z M 182.242188 188.238281 C 181.890625 187.972656 181.578125 187.59375 181.179688 187.464844 C 180.820312 187.34375 180.460938 187.230469 180.097656 187.113281 C 180.460938 187.230469 180.820312 187.347656 181.179688 187.464844 C 181.578125 187.59375 181.894531 187.972656 182.242188 188.238281 Z M 147.78125 178.699219 C 155.539062 180.746094 163.265625 182.921875 171.011719 184.996094 C 171.722656 185.183594 172.5625 184.925781 173.335938 184.878906 C 175.101562 185.507812 176.726562 186.035156 178.296875 186.539062 C 176.746094 186.046875 175.167969 185.550781 173.519531 185 C 172.554688 184.925781 171.722656 185.183594 171.011719 184.996094 C 163.265625 182.921875 155.539062 180.746094 147.78125 178.699219 C 147.027344 178.5 146.09375 178.992188 145.238281 179.164062 C 146.089844 178.992188 147.03125 178.5 147.78125 178.699219 Z M 141.605469 182.238281 C 141.007812 182.136719 140.417969 182 139.824219 181.859375 C 140.425781 182 141.015625 182.132812 141.605469 182.234375 C 142.332031 182.359375 143.117188 182.136719 143.878906 182.074219 C 143.878906 182.074219 143.882812 182.078125 143.882812 182.078125 C 143.121094 182.140625 142.335938 182.367188 141.605469 182.238281 Z M 117.546875 172.761719 C 117.949219 172.746094 118.351562 172.742188 118.75 172.75 C 118.351562 172.742188 117.953125 172.746094 117.550781 172.761719 C 117.546875 172.761719 117.546875 172.761719 117.546875 172.761719 Z M 123.953125 177.296875 C 124.324219 177.730469 124.632812 178.441406 125.085938 178.550781 C 127.660156 179.164062 130.25 179.726562 132.917969 180.292969 C 130.199219 179.722656 127.632812 179.164062 125.085938 178.558594 C 124.628906 178.449219 124.328125 177.730469 123.949219 177.296875 C 123.949219 177.296875 123.949219 177.296875 123.953125 177.296875 Z M 123.953125 177.296875 " fill-opacity="1" fill-rule="nonzero"/><g clip-path="url(#2bc33e353a)"><path fill="#303033" d="M 330.207031 205.710938 C 324.265625 206.878906 318.5625 207.984375 312.925781 209.355469 C 269.496094 219.921875 226.074219 230.542969 182.648438 241.148438 C 177.988281 242.289062 173.359375 243.550781 168.675781 244.5625 C 167.144531 244.894531 165.472656 244.554688 164.179688 245.546875 C 165.476562 244.550781 167.148438 244.886719 168.683594 244.558594 C 173.371094 243.542969 177.996094 242.285156 182.65625 241.144531 C 226.074219 230.535156 269.5 219.917969 312.933594 209.347656 C 318.566406 207.980469 324.273438 206.875 330.207031 205.476562 C 329.386719 204.316406 328.445312 203.042969 327.183594 202.382812 C 325.300781 201.398438 323.199219 200.832031 321.183594 200.109375 C 304.570312 194.1875 287.957031 188.269531 271.34375 182.355469 C 265.664062 185.574219 259.957031 188.746094 254.265625 191.949219 C 259.984375 188.726562 265.746094 185.515625 271.527344 182.21875 C 279.003906 178.535156 286.289062 175.007812 293.5625 171.464844 C 299.234375 168.710938 302.867188 164.042969 303.757812 158.039062 C 304.507812 152.972656 304.394531 147.597656 303.589844 142.53125 C 302.796875 137.527344 300.191406 132.84375 295.308594 130.570312 C 292.234375 129.136719 288.628906 128.851562 285.058594 128.117188 C 275.964844 132.625 267.152344 137.261719 258.144531 141.457031 C 241.324219 149.292969 224.441406 156.992188 207.449219 164.4375 C 204.398438 165.773438 200.648438 166.277344 197.308594 166.019531 C 191.523438 165.578125 185.789062 164.304688 180.054688 163.269531 C 153.492188 158.457031 126.933594 153.671875 100.390625 148.746094 C 92.257812 147.230469 84.195312 145.324219 75.910156 143.753906 C 70.445312 144.976562 65.125 145.875 59.921875 147.230469 C 58.484375 147.597656 57.402344 149.292969 56.15625 150.382812 C 56.332031 150.363281 56.542969 150.296875 56.726562 150.269531 C 56.539062 150.320312 56.316406 150.441406 56.109375 150.601562 C 55.8125 154.804688 59.472656 154.941406 61.90625 156.511719 C 68.671875 158.132812 75.164062 159.925781 81.726562 161.363281 C 98.824219 165.109375 115.925781 168.835938 133.078125 172.320312 C 150.335938 175.824219 167.632812 179.160156 184.957031 182.285156 C 192.335938 183.621094 199.449219 184.835938 202.007812 193.433594 C 202.183594 192.851562 202.292969 192.289062 202.269531 191.761719 C 202.300781 192.292969 202.183594 192.863281 202.011719 193.449219 C 203.367188 199.0625 204.382812 204.625 202.695312 210.375 C 201.554688 214.253906 197.503906 216.820312 193.6875 215.929688 C 177.140625 212.070312 160.601562 208.222656 144.054688 204.382812 C 117.527344 198.226562 90.996094 192.082031 64.464844 185.921875 C 64.070312 185.832031 63.703125 185.640625 62.863281 185.34375 C 62.101562 185.183594 61.726562 185.050781 61.5 185.179688 C 60.210938 185.898438 58.125 186.472656 57.871094 187.488281 C 57.8125 187.722656 57.789062 187.9375 57.796875 188.136719 C 57.789062 187.933594 57.8125 187.714844 57.871094 187.46875 C 58.125 186.457031 60.210938 185.882812 61.5 185.160156 C 61.722656 185.035156 62.09375 185.167969 62.675781 185.183594 C 63.582031 183.953125 64.222656 182.710938 64.601562 181.277344 C 61.445312 182.101562 58.601562 183.300781 55.644531 184.078125 C 49.660156 185.648438 46.203125 189.816406 45.371094 195.460938 C 44.339844 202.488281 44.257812 209.671875 43.984375 216.796875 C 43.765625 222.449219 46.921875 226.40625 51.292969 229.464844 C 63.546875 238.039062 75.660156 246.835938 88.183594 255.011719 C 107.992188 267.949219 127.734375 281.039062 149.320312 290.992188 C 154.375 293.324219 159.515625 295.613281 165.226562 294.765625 C 170.679688 293.960938 176.140625 292.957031 181.449219 291.496094 C 213.140625 282.773438 244.8125 274 276.429688 265.015625 C 292.449219 260.464844 308.351562 255.46875 324.265625 250.542969 C 325.367188 250.199219 326.132812 248.757812 327.054688 247.824219 C 325.894531 247.300781 324.730469 246.785156 323.570312 246.265625 C 302.742188 251.859375 281.902344 257.417969 261.082031 263.03125 C 281.898438 257.410156 302.726562 251.816406 323.492188 246.074219 C 317.707031 240.792969 316.75 234.128906 317.550781 227.101562 C 317.902344 224 318.976562 220.9375 320.089844 217.992188 C 321.109375 215.296875 322.617188 212.796875 323.914062 210.210938 C 323.921875 210.207031 323.933594 210.207031 323.945312 210.203125 C 323.980469 210.191406 324.046875 210.203125 324.054688 210.203125 C 324.191406 210.070312 324.359375 210.015625 324.910156 209.980469 C 326.632812 209.550781 328.015625 209.222656 329.355469 208.78125 C 330.933594 208.265625 331.480469 207.289062 330.207031 205.710938 Z M 258.253906 245.453125 C 258.234375 245.464844 258.21875 245.480469 258.203125 245.496094 C 258.21875 245.480469 258.234375 245.464844 258.253906 245.449219 C 258.253906 245.449219 258.253906 245.453125 258.253906 245.453125 Z M 230.007812 248.726562 C 229.949219 248.71875 229.898438 248.707031 229.84375 248.695312 C 238.484375 246.28125 246.851562 243.765625 255.285156 241.480469 C 246.828125 243.773438 238.429688 246.300781 230.007812 248.726562 Z M 250.839844 246.804688 C 248.921875 247.292969 246.980469 247.785156 244.984375 248.285156 C 244.933594 248.296875 244.886719 248.304688 244.835938 248.3125 C 246.917969 247.792969 248.90625 247.292969 250.839844 246.804688 Z M 241.289062 249.535156 C 242.027344 249.589844 242.816406 249.832031 243.503906 249.660156 C 248.1875 248.5 252.851562 247.25 257.519531 246.007812 C 257.605469 245.984375 257.6875 245.933594 257.765625 245.875 C 257.683594 245.9375 257.601562 245.988281 257.511719 246.011719 C 252.847656 247.253906 248.179688 248.503906 243.5 249.667969 C 242.808594 249.839844 242.023438 249.59375 241.277344 249.539062 C 241.28125 249.539062 241.285156 249.539062 241.289062 249.535156 Z M 251.742188 235.722656 C 252.039062 235.765625 252.371094 235.925781 252.625 235.847656 C 253.738281 235.480469 254.792969 234.914062 255.921875 234.664062 C 259.046875 233.980469 262.222656 233.542969 265.324219 232.78125 C 268.507812 232 271.691406 231.1875 274.886719 230.363281 C 271.679688 231.195312 268.503906 232.003906 265.324219 232.789062 C 262.222656 233.550781 259.046875 233.984375 255.921875 234.671875 C 254.792969 234.921875 253.730469 235.492188 252.625 235.851562 C 252.371094 235.9375 252.039062 235.769531 251.738281 235.726562 C 251.742188 235.722656 251.742188 235.722656 251.742188 235.722656 Z M 229.152344 247.113281 C 229.152344 247.113281 229.152344 247.113281 229.148438 247.113281 C 229.152344 247.113281 229.152344 247.113281 229.152344 247.113281 C 233.6875 245.828125 238.226562 244.539062 242.765625 243.265625 C 238.226562 244.539062 233.6875 245.828125 229.152344 247.113281 Z M 227.878906 248.214844 C 227.722656 248.167969 227.574219 248.121094 227.425781 248.074219 C 227.425781 248.074219 227.429688 248.070312 227.429688 248.070312 C 227.429688 248.070312 227.425781 248.074219 227.425781 248.074219 C 227.574219 248.121094 227.726562 248.167969 227.878906 248.214844 Z M 247.644531 153.570312 C 258.554688 147.628906 269.472656 141.636719 280.519531 135.617188 C 281.703125 134.960938 282.8125 134.386719 283.851562 133.769531 C 282.828125 134.378906 281.761719 134.9375 280.730469 135.535156 C 269.53125 141.617188 258.570312 147.625 247.644531 153.570312 Z M 238.769531 158.386719 C 241.46875 156.925781 244.164062 155.464844 246.859375 153.996094 C 244.164062 155.464844 241.46875 156.925781 238.769531 158.386719 Z M 235.101562 157.925781 C 251.453125 148.933594 267.824219 139.988281 284.238281 131.101562 C 285.523438 130.410156 287.113281 130.285156 288.566406 129.894531 C 288.566406 129.894531 288.5625 129.894531 288.5625 129.894531 C 287.113281 130.285156 285.527344 130.410156 284.246094 131.101562 C 267.832031 139.988281 251.457031 148.933594 235.109375 157.925781 C 233.902344 158.589844 232.960938 159.710938 231.894531 160.621094 C 231.894531 160.621094 231.890625 160.621094 231.890625 160.625 C 232.957031 159.710938 233.902344 158.585938 235.101562 157.925781 Z M 109.871094 221.089844 C 104.808594 218.40625 99.671875 215.839844 94.804688 212.832031 C 85.503906 207.082031 76.351562 201.09375 67.179688 195.132812 C 66.210938 194.503906 64.144531 193.878906 66.3125 192.027344 C 65.597656 191.761719 64.84375 191.472656 64.066406 191.199219 C 64.890625 191.472656 65.710938 191.757812 66.535156 192.015625 C 67.046875 192.257812 67.5625 192.5 68.539062 192.738281 C 69.054688 192.761719 69.460938 192.773438 69.816406 192.789062 C 69.496094 192.78125 69.152344 192.78125 68.75 192.777344 C 80.242188 201.546875 92.371094 209.648438 105.539062 216.125 C 107.453125 217.066406 109.257812 218.25 111.023438 219.453125 C 111.523438 219.796875 111.707031 220.597656 112.035156 221.1875 C 111.304688 221.164062 110.445312 221.394531 109.871094 221.089844 Z M 160.183594 252.089844 C 158.257812 256.191406 157.234375 260.519531 158.277344 265.378906 C 158.707031 264.902344 158.953125 264.492188 159.105469 264.050781 C 160.566406 259.769531 161.726562 255.359375 163.601562 251.269531 C 163.792969 250.855469 164.070312 250.445312 164.40625 250.046875 C 164.070312 250.441406 163.796875 250.851562 163.609375 251.265625 C 161.730469 255.355469 160.574219 259.765625 159.109375 264.042969 C 158.960938 264.492188 158.707031 264.898438 158.273438 265.628906 C 158.136719 267.503906 158.195312 269.085938 158.328125 270.65625 C 158.195312 269.082031 158.132812 267.496094 158.046875 265.675781 C 157.167969 260.609375 158.242188 256.210938 160.183594 252.089844 Z M 277.195312 235.949219 C 279.496094 235.199219 281.78125 234.371094 284.117188 233.761719 C 281.777344 234.375 279.496094 235.199219 277.195312 235.949219 Z M 308.238281 221.554688 C 306.175781 222.117188 304.113281 222.664062 302.046875 223.210938 C 304.117188 222.664062 306.179688 222.113281 308.238281 221.550781 C 308.800781 221.402344 309.175781 220.585938 309.640625 220.082031 C 309.640625 220.082031 309.644531 220.082031 309.644531 220.082031 C 309.179688 220.585938 308.800781 221.402344 308.238281 221.554688 Z M 308.238281 221.554688 " fill-opacity="1" fill-rule="nonzero"/></g><path fill="#303033" d="M 324.175781 210.304688 C 324.472656 210.304688 324.644531 210.203125 324.6875 210.070312 C 324.359375 210.015625 324.191406 210.070312 324.175781 210.304688 Z M 324.175781 210.304688 " fill-opacity="1" fill-rule="nonzero"/><path fill="#2e59a7" d="M 152.234375 239.839844 C 153.0625 240.246094 153.851562 240.839844 154.726562 241 C 155.851562 241.207031 157.039062 241.058594 158.195312 241.0625 C 157.371094 240.300781 156.671875 239.230469 155.695312 238.828125 C 149.003906 236.058594 142.265625 233.398438 135.503906 230.792969 C 134.703125 230.484375 133.6875 230.71875 132.769531 230.703125 C 133.457031 231.355469 134.035156 232.265625 134.851562 232.617188 C 140.476562 235.007812 146.15625 237.289062 152.234375 239.839844 Z M 152.234375 239.839844 " fill-opacity="1" fill-rule="nonzero"/><g clip-path="url(#89c3302330)"><path fill="#f45830" d="M 243.847656 267.6875 C 218.367188 274.609375 192.910156 281.640625 167.488281 288.757812 C 165.246094 289.390625 164.195312 288.542969 163.179688 287.050781 C 159.839844 282.15625 158.851562 276.535156 158.339844 270.789062 C 158.195312 269.175781 158.132812 267.550781 158.046875 265.675781 C 156.757812 258.253906 159.660156 252.265625 163.351562 246.472656 C 164.699219 244.355469 166.792969 244.964844 168.683594 244.558594 C 173.371094 243.542969 177.996094 242.285156 182.65625 241.144531 C 226.074219 230.535156 269.5 219.917969 312.933594 209.347656 C 318.566406 207.980469 324.273438 206.875 330.207031 205.476562 C 329.386719 204.316406 328.445312 203.042969 327.183594 202.382812 C 325.300781 201.398438 323.199219 200.832031 321.183594 200.109375 C 304.570312 194.1875 287.957031 188.269531 271.34375 182.355469 L 66.121094 181.101562 C 65.605469 180.753906 64.929688 180.773438 64.371094 181.089844 C 63.523438 181.566406 62.636719 181.835938 61.675781 182.152344 C 59.667969 182.804688 57.6875 183.542969 55.644531 184.078125 C 49.660156 185.648438 46.203125 189.816406 45.371094 195.460938 C 44.339844 202.488281 44.257812 209.671875 43.984375 216.796875 C 43.765625 222.449219 46.921875 226.40625 51.292969 229.464844 C 63.546875 238.039062 75.660156 246.835938 88.183594 255.011719 C 107.992188 267.949219 127.734375 281.039062 149.320312 290.992188 C 154.375 293.324219 159.515625 295.613281 165.226562 294.765625 C 170.679688 293.960938 176.140625 292.957031 181.449219 291.496094 C 213.140625 282.773438 244.8125 274 276.429688 265.015625 C 292.449219 260.464844 308.351562 255.46875 324.265625 250.542969 C 325.367188 250.199219 326.132812 248.757812 327.054688 247.824219 C 325.894531 247.300781 324.730469 246.785156 323.570312 246.265625 C 296.996094 253.402344 270.402344 260.480469 243.847656 267.6875 Z M 243.847656 267.6875 " fill-opacity="1" fill-rule="nonzero"/></g><path fill="#fcac3d" d="M 303.589844 142.53125 C 302.796875 137.527344 300.191406 132.84375 295.308594 130.570312 C 292.234375 129.136719 288.628906 128.851562 285.058594 128.117188 L 135.757812 120.65625 L 75.910156 143.753906 C 70.445312 144.976562 65.125 145.875 59.921875 147.230469 C 58.484375 147.597656 57.402344 149.292969 56.15625 150.382812 C 56.460938 150.347656 56.871094 150.164062 57.054688 150.296875 C 64.6875 155.816406 73.96875 156.664062 82.667969 158.652344 C 110.535156 165.023438 138.542969 170.796875 166.523438 176.632812 C 174.695312 178.339844 182.941406 179.867188 191.230469 180.789062 C 197.925781 181.535156 200.714844 185.511719 202.191406 191.25 C 202.367188 191.917969 202.242188 192.671875 202.011719 193.449219 C 203.367188 199.0625 204.382812 204.625 202.695312 210.375 C 201.554688 214.253906 197.503906 216.816406 193.6875 215.929688 C 177.140625 212.070312 160.601562 208.222656 144.054688 204.382812 C 117.527344 198.226562 90.996094 192.082031 64.464844 185.921875 C 64.070312 185.832031 63.703125 185.640625 62.863281 185.34375 C 62.101562 185.183594 61.726562 185.050781 61.5 185.179688 C 60.210938 185.898438 58.125 186.472656 57.871094 187.488281 C 57.390625 189.429688 59.28125 189.964844 61.023438 190.332031 C 62.894531 190.726562 64.699219 191.445312 66.535156 192.015625 C 67.046875 192.257812 67.5625 192.5 68.539062 192.738281 C 69.613281 192.789062 70.238281 192.773438 70.828125 192.910156 C 81.710938 195.417969 92.578125 197.996094 103.472656 200.464844 C 134.558594 207.515625 165.679688 214.429688 196.734375 221.628906 C 202.441406 222.953125 207.015625 221.828125 211.707031 218.53125 C 219.75 212.867188 227.921875 207.351562 236.359375 202.292969 C 247.859375 195.398438 259.660156 188.988281 271.527344 182.21875 C 279.003906 178.535156 286.289062 175.003906 293.5625 171.464844 C 299.234375 168.710938 302.867188 164.042969 303.757812 158.039062 C 304.507812 152.972656 304.394531 147.597656 303.589844 142.53125 Z M 303.589844 142.53125 " fill-opacity="1" fill-rule="nonzero"/><g clip-path="url(#2acbcafb71)"><path fill="#2e59a7" d="M 295.734375 105.992188 C 295.703125 114.746094 293.25 122.503906 285.179688 127.941406 C 275.964844 132.613281 267.152344 137.253906 258.144531 141.453125 C 241.324219 149.289062 224.441406 156.984375 207.449219 164.433594 C 204.398438 165.765625 200.648438 166.269531 197.308594 166.011719 C 191.523438 165.570312 185.789062 164.300781 180.054688 163.265625 C 153.496094 158.457031 126.933594 153.664062 100.390625 148.738281 C 92.257812 147.230469 84.195312 145.324219 76.097656 143.601562 C 71.421875 142.207031 66.742188 140.824219 62.078125 139.40625 C 61.109375 139.117188 59.996094 138.902344 59.269531 138.285156 C 58.472656 137.605469 58.042969 136.488281 57.453125 135.558594 C 58.382812 135.144531 59.28125 134.609375 60.253906 134.363281 C 60.90625 134.195312 61.660156 134.4375 62.800781 134.660156 C 65.308594 135.273438 67.367188 135.84375 69.46875 136.148438 C 76.132812 137.121094 82.871094 137.671875 89.464844 138.96875 C 118.742188 144.71875 147.988281 150.640625 177.234375 156.5625 C 183.210938 157.769531 189.082031 159.597656 195.109375 160.429688 C 197.398438 160.742188 200.101562 159.335938 202.34375 158.175781 C 203.46875 157.597656 203.980469 155.839844 204.992188 154.574219 C 205.449219 154.230469 205.761719 153.960938 205.925781 153.617188 C 210.550781 143.972656 203.914062 131.316406 193.546875 128.703125 C 181.816406 125.746094 170.085938 122.746094 158.28125 120.132812 C 129.164062 113.683594 100.207031 106.65625 71.574219 98.28125 C 69.234375 97.59375 66.628906 97.796875 64.148438 97.578125 C 62.59375 95.039062 64.390625 94.371094 66.285156 93.78125 C 79.269531 89.703125 92.167969 85.285156 105.273438 81.625 C 125.1875 76.066406 145.238281 70.996094 165.253906 65.800781 C 169.863281 64.605469 174.425781 64.707031 179.191406 65.878906 C 203.90625 72 228.761719 77.65625 253.476562 83.847656 C 264.175781 86.53125 274.648438 90.101562 285.121094 93.476562 L 286.511719 94.1875 C 286.546875 94.128906 286.585938 94.078125 286.621094 94.019531 C 292.632812 95.4375 295.757812 99.289062 295.734375 105.992188 Z M 295.734375 105.992188 " fill-opacity="1" fill-rule="nonzero"/></g><path fill="#fcac3d" d="M 280.730469 135.535156 C 282.230469 134.664062 283.800781 133.890625 285.207031 132.894531 C 286.425781 132.03125 287.453125 130.902344 288.566406 129.894531 C 287.113281 130.285156 285.523438 130.410156 284.238281 131.101562 C 267.824219 139.988281 251.453125 148.933594 235.101562 157.925781 C 233.902344 158.585938 232.957031 159.710938 231.890625 160.625 C 233.359375 160.347656 235.015625 160.417969 236.269531 159.742188 C 250.988281 151.792969 265.644531 143.726562 280.730469 135.535156 Z M 280.730469 135.535156 " fill-opacity="1" fill-rule="nonzero"/><path fill="#e5e1d7" d="M 323.492188 246.074219 C 296.996094 253.402344 270.402344 260.480469 243.847656 267.691406 C 218.367188 274.617188 192.917969 281.644531 167.488281 288.765625 C 165.246094 289.394531 164.195312 288.542969 163.179688 287.058594 C 159.832031 282.160156 158.851562 276.542969 158.339844 270.796875 C 158.195312 269.179688 158.132812 267.558594 158.273438 265.628906 C 158.707031 264.898438 158.960938 264.492188 159.109375 264.042969 C 160.574219 259.765625 161.730469 255.355469 163.609375 251.265625 C 164.367188 249.617188 166.488281 247.964844 168.296875 247.519531 C 185.078125 243.34375 201.933594 239.453125 218.746094 235.429688 C 253.804688 227.035156 288.859375 218.617188 323.917969 210.203125 C 322.621094 212.792969 321.109375 215.292969 320.089844 217.992188 C 318.976562 220.9375 317.902344 224 317.550781 227.101562 C 316.75 234.128906 317.707031 240.792969 323.492188 246.074219 Z M 230.007812 248.726562 C 238.429688 246.300781 246.828125 243.773438 255.285156 241.480469 C 261.445312 239.816406 267.710938 238.550781 273.886719 236.941406 C 277.335938 236.039062 280.664062 234.664062 284.117188 233.761719 C 287.640625 232.84375 291.246094 232.261719 294.808594 231.480469 C 295.308594 231.371094 295.738281 230.972656 296.203125 230.707031 C 295.636719 230.460938 295.003906 229.910156 294.515625 230.015625 C 289.007812 231.195312 283.492188 232.378906 278.023438 233.753906 C 270.792969 235.570312 263.585938 237.507812 256.394531 239.476562 C 247.296875 241.96875 238.226562 244.539062 229.152344 247.113281 C 228.539062 247.289062 228 247.75 227.425781 248.074219 C 228.113281 248.292969 228.808594 248.503906 230.007812 248.726562 Z M 288.382812 226.773438 C 295.003906 225.050781 301.632812 223.355469 308.238281 221.554688 C 308.800781 221.402344 309.179688 220.585938 309.644531 220.082031 C 309.023438 219.910156 308.351562 219.5 307.789062 219.613281 C 304.125 220.363281 300.449219 221.132812 296.828125 222.078125 C 284.105469 225.398438 271.382812 228.742188 258.695312 232.207031 C 256.519531 232.804688 254.511719 234.011719 252.441406 234.980469 C 252.152344 235.113281 251.96875 235.46875 251.738281 235.726562 C 252.039062 235.769531 252.371094 235.9375 252.625 235.851562 C 253.730469 235.492188 254.792969 234.921875 255.921875 234.671875 C 259.046875 233.984375 262.222656 233.550781 265.324219 232.789062 C 272.871094 230.925781 280.386719 228.945312 288.382812 226.773438 Z M 244.753906 248.332031 C 244.269531 248.425781 243.757812 248.453125 243.296875 248.625 C 242.609375 248.875 241.949219 249.230469 241.277344 249.539062 C 242.023438 249.59375 242.808594 249.839844 243.5 249.667969 C 248.179688 248.503906 252.847656 247.253906 257.511719 246.011719 C 257.789062 245.9375 258.007812 245.640625 258.253906 245.453125 C 257.984375 245.34375 257.683594 245.089844 257.457031 245.140625 C 253.371094 246.15625 249.292969 247.203125 244.753906 248.332031 Z M 244.753906 248.332031 " fill-opacity="1" fill-rule="nonzero"/><path fill="#e5e1d7" d="M 201.761719 193.5 C 203.363281 199.050781 204.378906 204.605469 202.691406 210.359375 C 201.546875 214.234375 197.496094 216.808594 193.679688 215.914062 C 177.140625 212.058594 160.597656 208.210938 144.050781 204.367188 C 117.519531 198.207031 90.988281 192.0625 64.460938 185.90625 C 64.070312 185.8125 63.695312 185.625 63.128906 185.332031 C 63.582031 183.945312 64.21875 182.703125 64.832031 181.230469 C 67.203125 176.09375 65.542969 171.121094 65.039062 166.171875 C 64.976562 165.578125 64.867188 164.980469 65.027344 164.089844 C 70.140625 164.648438 75.011719 165.464844 79.867188 166.375 C 89.503906 168.171875 99.144531 169.960938 108.757812 171.871094 C 114.859375 173.085938 120.910156 174.558594 126.996094 175.859375 C 131.71875 176.867188 136.464844 177.789062 141.203125 178.722656 C 141.578125 178.796875 141.992188 178.644531 142.386719 178.597656 C 142.089844 178.195312 141.859375 177.539062 141.480469 177.429688 C 139.667969 176.925781 137.828125 176.398438 135.964844 176.191406 C 129.75 175.5 124.039062 172.515625 117.539062 172.761719 C 114.523438 172.875 111.496094 170.753906 108.371094 170.113281 C 94.839844 167.332031 81.269531 164.722656 67.71875 162.019531 C 66.3125 161.742188 64.945312 161.242188 63.5625 160.847656 C 62.949219 159.546875 62.332031 158.246094 61.929688 156.730469 C 68.664062 158.136719 75.152344 159.929688 81.714844 161.367188 C 98.8125 165.113281 115.914062 168.84375 133.066406 172.324219 C 150.324219 175.824219 167.613281 179.164062 184.945312 182.292969 C 192.335938 183.621094 199.453125 184.835938 201.761719 193.5 Z M 173.335938 184.878906 C 172.5625 184.925781 171.722656 185.183594 171.011719 184.996094 C 163.265625 182.921875 155.539062 180.746094 147.78125 178.699219 C 147.027344 178.5 146.089844 178.992188 145.238281 179.164062 C 145.925781 179.558594 146.570312 180.144531 147.308594 180.328125 C 155.027344 182.246094 162.757812 184.113281 170.488281 185.972656 C 173.9375 186.804688 177.386719 187.617188 180.847656 188.390625 C 181.277344 188.488281 181.777344 188.292969 182.242188 188.238281 C 181.890625 187.972656 181.578125 187.59375 181.179688 187.464844 C 178.703125 186.65625 176.199219 185.898438 173.335938 184.878906 Z M 136.953125 181.132812 C 138.5 181.511719 140.039062 181.964844 141.605469 182.238281 C 142.335938 182.367188 143.121094 182.140625 143.882812 182.078125 C 143.234375 181.570312 142.652344 180.761719 141.921875 180.589844 C 136.464844 179.3125 130.984375 178.140625 125.496094 176.992188 C 125.019531 176.894531 124.464844 177.1875 123.949219 177.296875 C 124.328125 177.730469 124.628906 178.449219 125.085938 178.558594 C 128.855469 179.457031 132.648438 180.242188 136.953125 181.132812 Z M 136.953125 181.132812 " fill-opacity="1" fill-rule="nonzero"/><path fill="#e5e1d7" d="M 204.761719 154.613281 C 203.976562 155.839844 203.457031 157.605469 202.335938 158.183594 C 200.089844 159.335938 197.386719 160.75 195.097656 160.433594 C 189.078125 159.605469 183.199219 157.78125 177.222656 156.566406 C 147.976562 150.644531 118.730469 144.71875 89.453125 138.972656 C 82.859375 137.679688 76.121094 137.128906 69.457031 136.15625 C 67.355469 135.84375 65.296875 135.277344 63.058594 134.664062 C 63.890625 133.640625 64.792969 132.644531 65.886719 131.949219 C 71.402344 128.457031 72.351562 122.804688 71.910156 117.21875 C 71.476562 111.742188 69.6875 106.371094 68.746094 100.710938 C 69.507812 100.503906 70.042969 100.460938 70.53125 100.585938 C 81.136719 103.347656 91.707031 106.234375 102.339844 108.875 C 120.554688 113.390625 138.8125 117.757812 157.050781 122.183594 C 168.738281 125.027344 180.457031 127.730469 192.097656 130.746094 C 201.65625 133.226562 206.328125 140.914062 204.714844 150.667969 C 204.503906 151.941406 204.738281 153.292969 204.761719 154.613281 Z M 83.179688 122.054688 L 83.21875 121.910156 C 83.21875 121.910156 83.230469 122.011719 83.226562 122.402344 C 83.792969 122.859375 84.304688 123.617188 84.933594 123.730469 C 89.910156 124.652344 94.910156 125.464844 99.90625 126.261719 C 100.503906 126.359375 101.148438 126.148438 101.765625 126.074219 C 101.257812 125.550781 100.804688 124.660156 100.21875 124.5625 C 94.582031 123.644531 88.917969 122.855469 83.179688 122.054688 Z M 180.746094 133.203125 C 177.449219 132.339844 174.144531 131.496094 170.855469 130.617188 C 166.132812 129.351562 161.421875 128.019531 156.695312 126.773438 C 152.0625 125.550781 147.441406 124.257812 142.75 123.320312 C 141.347656 123.039062 140.183594 122.867188 138.769531 122.234375 C 135.257812 120.667969 131.265625 120.15625 127.460938 119.25 C 122.976562 118.1875 118.472656 117.207031 114.003906 116.089844 C 110.203125 115.144531 106.449219 114.035156 102.652344 113.078125 C 102.238281 112.972656 101.691406 113.402344 101.203125 113.585938 C 101.480469 113.949219 101.6875 114.421875 102.046875 114.640625 C 102.558594 114.949219 103.191406 115.046875 103.757812 115.265625 C 108.871094 117.21875 114.496094 117.125 119.582031 119.304688 C 121.484375 120.117188 123.683594 120.21875 125.699219 120.816406 C 132.527344 122.824219 139.320312 124.957031 146.152344 126.957031 C 158.195312 130.476562 170.265625 133.925781 182.316406 137.433594 C 183.945312 137.90625 185.492188 138.742188 187.144531 139.007812 C 187.847656 139.117188 188.722656 138.175781 189.515625 137.710938 C 189.015625 137.058594 188.652344 136.101562 188 135.816406 C 185.800781 134.859375 183.488281 134.148438 180.746094 133.203125 Z M 159.710938 135.972656 C 163.265625 137.054688 166.863281 137.992188 170.351562 139.253906 C 173.335938 140.335938 176.5625 139.933594 179.515625 142.054688 C 182.195312 143.980469 186.058594 144.320312 189.445312 145.175781 C 190.257812 145.382812 191.265625 144.835938 192.183594 144.644531 C 191.625 143.9375 191.210938 142.914062 190.488281 142.585938 C 186.398438 140.75 181.9375 140.050781 177.714844 138.433594 C 170.644531 135.726562 163.210938 133.945312 155.878906 131.960938 C 144.292969 128.828125 132.675781 125.808594 121.042969 122.84375 C 117.53125 121.945312 113.9375 121.324219 110.363281 120.683594 C 109.640625 120.550781 108.832031 120.914062 108.058594 121.042969 C 108.773438 121.519531 109.429688 122.214844 110.214844 122.425781 C 114.492188 123.585938 118.824219 124.542969 123.085938 125.742188 C 130.554688 127.835938 137.96875 130.113281 145.441406 132.195312 C 150.054688 133.480469 154.726562 134.546875 159.710938 135.972656 Z M 148.183594 137.046875 C 149.039062 137.019531 149.894531 136.984375 150.742188 136.957031 C 149.949219 136.515625 149.179688 136.027344 148.359375 135.65625 C 147.820312 135.414062 147.207031 135.324219 146.617188 135.199219 C 143.339844 134.492188 140.0625 133.773438 136.769531 133.136719 C 136.453125 133.074219 136.035156 133.53125 135.660156 133.742188 C 135.9375 133.964844 136.175781 134.332031 136.480469 134.394531 C 140.316406 135.1875 144.160156 135.929688 148.183594 137.046875 Z M 83.449219 109.808594 C 86.753906 110.785156 90.066406 111.765625 93.371094 112.746094 C 93.832031 112.882812 94.339844 113.179688 94.738281 113.070312 C 95.246094 112.929688 95.667969 112.453125 96.125 112.113281 C 95.730469 111.925781 95.355469 111.675781 94.945312 111.566406 C 91.878906 110.746094 88.820312 109.871094 85.722656 109.210938 C 84.90625 109.035156 83.9375 109.542969 83.449219 109.808594 Z M 91.886719 116.40625 C 90.816406 116.234375 89.757812 116.027344 88.6875 115.925781 C 88.417969 115.902344 88.121094 116.214844 87.839844 116.375 C 88.050781 116.527344 88.242188 116.765625 88.476562 116.8125 C 92.015625 117.503906 95.558594 118.179688 99.105469 118.828125 C 99.386719 118.878906 99.71875 118.660156 100.027344 118.570312 C 99.808594 118.375 99.621094 118.066406 99.375 118.007812 C 97.042969 117.488281 94.714844 117.011719 91.886719 116.40625 Z M 125.453125 131.835938 C 127.019531 132.164062 128.574219 132.613281 130.15625 132.761719 C 130.78125 132.820312 131.464844 132.214844 132.125 131.90625 C 131.613281 131.722656 131.117188 131.507812 130.59375 131.359375 C 129.09375 130.925781 127.613281 130.347656 126.082031 130.140625 C 124.847656 129.972656 123.558594 130.265625 122.289062 130.351562 C 123.195312 130.78125 124.101562 131.199219 125.453125 131.835938 Z M 125.453125 131.835938 " fill-opacity="1" fill-rule="nonzero"/><path fill="#303033" d="M 323.945312 210.203125 C 288.851562 218.621094 253.800781 227.042969 218.742188 235.433594 C 201.921875 239.460938 185.070312 243.347656 168.292969 247.523438 C 166.488281 247.972656 164.359375 249.621094 163.601562 251.269531 C 161.726562 255.359375 160.566406 259.769531 159.105469 264.050781 C 158.953125 264.492188 158.707031 264.902344 158.277344 265.378906 C 156.75 258.257812 159.65625 252.273438 163.34375 246.476562 C 164.6875 244.363281 166.789062 244.96875 168.675781 244.5625 C 173.359375 243.550781 177.988281 242.289062 182.648438 241.148438 C 226.074219 230.542969 269.496094 219.921875 312.925781 209.355469 C 318.5625 207.984375 324.265625 206.878906 330.207031 205.710938 C 331.480469 207.289062 330.933594 208.265625 329.355469 208.78125 C 328.015625 209.222656 326.632812 209.550781 324.910156 209.980469 C 324.359375 210.015625 324.191406 210.070312 324.054688 210.203125 C 324.046875 210.203125 323.980469 210.191406 323.945312 210.203125 Z M 323.945312 210.203125 " fill-opacity="1" fill-rule="nonzero"/><path fill="#303033" d="M 202.007812 193.433594 C 199.449219 184.835938 192.335938 183.621094 184.957031 182.285156 C 167.632812 179.160156 150.335938 175.824219 133.078125 172.320312 C 115.925781 168.835938 98.824219 165.109375 81.726562 161.363281 C 75.164062 159.925781 68.671875 158.132812 61.90625 156.511719 C 59.472656 154.941406 55.8125 154.804688 56.109375 150.601562 C 56.464844 150.324219 56.878906 150.140625 57.0625 150.277344 C 64.695312 155.800781 73.96875 156.648438 82.675781 158.636719 C 110.542969 165.003906 138.542969 170.773438 166.53125 176.617188 C 174.703125 178.320312 182.949219 179.851562 191.234375 180.773438 C 197.933594 181.519531 200.722656 185.492188 202.195312 191.234375 C 202.363281 191.902344 202.242188 192.652344 202.007812 193.433594 Z M 202.007812 193.433594 " fill-opacity="1" fill-rule="nonzero"/><path fill="#303033" d="M 204.980469 154.574219 C 204.738281 153.292969 204.503906 151.941406 204.714844 150.65625 C 206.328125 140.910156 201.664062 133.222656 192.097656 130.734375 C 180.457031 127.71875 168.734375 125.007812 157.050781 122.171875 C 138.8125 117.746094 120.554688 113.382812 102.339844 108.863281 C 91.707031 106.222656 81.136719 103.335938 70.53125 100.574219 C 70.042969 100.449219 69.507812 100.492188 68.746094 100.460938 C 67.378906 99.023438 64.234375 101.238281 64.113281 97.800781 C 66.605469 97.785156 69.210938 97.589844 71.550781 98.269531 C 100.183594 106.644531 129.140625 113.679688 158.261719 120.121094 C 170.070312 122.738281 181.796875 125.742188 193.523438 128.691406 C 203.890625 131.304688 210.535156 143.960938 205.902344 153.605469 C 205.75 153.960938 205.4375 154.230469 204.980469 154.574219 Z M 204.980469 154.574219 " fill-opacity="1" fill-rule="nonzero"/><path fill="#303033" d="M 63.398438 160.96875 C 64.957031 161.242188 66.320312 161.742188 67.730469 162.019531 C 81.28125 164.722656 94.851562 167.332031 108.382812 170.113281 C 111.507812 170.753906 114.535156 172.875 117.550781 172.761719 C 124.046875 172.515625 129.761719 175.5 135.976562 176.191406 C 137.839844 176.398438 139.679688 176.925781 141.492188 177.429688 C 141.875 177.539062 142.101562 178.191406 142.398438 178.597656 C 142.003906 178.644531 141.582031 178.796875 141.214844 178.722656 C 136.476562 177.789062 131.730469 176.867188 127.007812 175.859375 C 120.917969 174.558594 114.867188 173.085938 108.769531 171.871094 C 99.15625 169.960938 89.515625 168.171875 79.878906 166.375 C 75.023438 165.46875 70.152344 164.648438 65.03125 163.832031 C 63.054688 163.617188 62.699219 162.597656 63.398438 160.96875 Z M 63.398438 160.96875 " fill-opacity="1" fill-rule="nonzero"/><path fill="#303033" d="M 286.503906 93.933594 C 286.023438 94.898438 285.609375 96.265625 284.796875 96.574219 C 269.289062 102.453125 253.738281 108.21875 238.167969 113.9375 C 237.007812 114.359375 235.648438 114.234375 234.386719 114.359375 C 235.339844 113.609375 236.1875 112.589844 237.265625 112.15625 C 249.046875 107.382812 260.847656 102.664062 272.679688 98.03125 C 276.738281 96.4375 280.902344 95.121094 285.277344 93.644531 C 285.824219 93.683594 286.105469 93.769531 286.503906 93.933594 Z M 286.503906 93.933594 " fill-opacity="1" fill-rule="nonzero"/><path fill="#e5e1d7" d="M 324.175781 210.304688 C 324.191406 210.070312 324.359375 210.015625 324.6875 210.070312 C 324.644531 210.203125 324.472656 210.304688 324.175781 210.304688 Z M 324.175781 210.304688 " fill-opacity="1" fill-rule="nonzero"/><path fill="#303033" d="M 66.3125 192.035156 C 67.054688 192.246094 67.570312 192.488281 68.292969 192.773438 C 80.242188 201.546875 92.378906 209.648438 105.539062 216.125 C 107.449219 217.066406 109.257812 218.25 111.023438 219.453125 C 111.523438 219.792969 111.707031 220.597656 112.035156 221.1875 C 111.304688 221.171875 110.445312 221.402344 109.871094 221.089844 C 104.808594 218.410156 99.671875 215.839844 94.804688 212.832031 C 85.503906 207.082031 76.351562 201.09375 67.179688 195.132812 C 66.214844 194.507812 64.144531 193.890625 66.3125 192.035156 Z M 66.3125 192.035156 " fill-opacity="1" fill-rule="nonzero"/><path fill="#303033" d="M 152.027344 239.722656 C 146.15625 237.289062 140.476562 235.007812 134.839844 232.609375 C 134.019531 232.261719 133.445312 231.351562 132.757812 230.695312 C 133.675781 230.714844 134.691406 230.480469 135.496094 230.789062 C 142.253906 233.394531 148.992188 236.058594 155.683594 238.824219 C 156.660156 239.230469 157.359375 240.296875 158.183594 241.058594 C 157.027344 241.050781 155.839844 241.203125 154.714844 240.996094 C 153.847656 240.847656 153.0625 240.246094 152.027344 239.722656 Z M 152.027344 239.722656 " fill-opacity="1" fill-rule="nonzero"/><path fill="#303033" d="M 280.519531 135.617188 C 265.640625 143.726562 250.988281 151.792969 236.273438 159.742188 C 235.023438 160.417969 233.363281 160.347656 231.894531 160.625 C 232.960938 159.710938 233.902344 158.589844 235.109375 157.925781 C 251.457031 148.933594 267.832031 139.988281 284.246094 131.101562 C 285.53125 130.410156 287.121094 130.285156 288.570312 129.894531 C 287.457031 130.90625 286.429688 132.03125 285.214844 132.894531 C 283.800781 133.890625 282.234375 134.664062 280.519531 135.617188 Z M 280.519531 135.617188 " fill-opacity="1" fill-rule="nonzero"/><path fill="#303033" d="M 229.753906 248.722656 C 228.808594 248.503906 228.117188 248.292969 227.425781 248.074219 C 228 247.75 228.53125 247.285156 229.152344 247.113281 C 238.226562 244.539062 247.296875 241.96875 256.394531 239.476562 C 263.585938 237.507812 270.785156 235.570312 278.023438 233.753906 C 283.492188 232.378906 289 231.195312 294.515625 230.015625 C 295.003906 229.910156 295.636719 230.460938 296.203125 230.707031 C 295.738281 230.972656 295.308594 231.371094 294.808594 231.480469 C 291.25 232.261719 287.640625 232.84375 284.117188 233.761719 C 280.667969 234.660156 277.339844 236.039062 273.886719 236.941406 C 267.710938 238.550781 261.445312 239.816406 255.285156 241.480469 C 246.820312 243.773438 238.425781 246.300781 229.753906 248.722656 Z M 229.753906 248.722656 " fill-opacity="1" fill-rule="nonzero"/><path fill="#303033" d="M 288.152344 226.886719 C 280.394531 228.9375 272.875 230.925781 265.324219 232.78125 C 262.222656 233.542969 259.046875 233.980469 255.921875 234.664062 C 254.792969 234.914062 253.738281 235.480469 252.625 235.847656 C 252.371094 235.925781 252.039062 235.765625 251.738281 235.71875 C 251.96875 235.46875 252.152344 235.113281 252.441406 234.976562 C 254.503906 234.011719 256.515625 232.796875 258.695312 232.203125 C 271.382812 228.738281 284.101562 225.394531 296.828125 222.070312 C 300.449219 221.125 304.125 220.359375 307.789062 219.609375 C 308.351562 219.492188 309.023438 219.90625 309.644531 220.078125 C 309.179688 220.582031 308.800781 221.402344 308.238281 221.550781 C 301.632812 223.355469 295 225.050781 288.152344 226.886719 Z M 288.152344 226.886719 " fill-opacity="1" fill-rule="nonzero"/><path fill="#303033" d="M 244.984375 248.285156 C 249.292969 247.203125 253.375 246.148438 257.460938 245.136719 C 257.683594 245.078125 257.988281 245.332031 258.257812 245.445312 C 258.011719 245.640625 257.792969 245.933594 257.519531 246.007812 C 252.851562 247.25 248.1875 248.5 243.503906 249.660156 C 242.816406 249.832031 242.023438 249.585938 241.285156 249.535156 C 241.953125 249.226562 242.609375 248.871094 243.304688 248.617188 C 243.757812 248.453125 244.269531 248.425781 244.984375 248.285156 Z M 244.984375 248.285156 " fill-opacity="1" fill-rule="nonzero"/><path fill="#303033" d="M 173.519531 185 C 176.199219 185.894531 178.703125 186.648438 181.179688 187.464844 C 181.578125 187.59375 181.890625 187.972656 182.242188 188.238281 C 181.777344 188.292969 181.277344 188.488281 180.847656 188.390625 C 177.386719 187.617188 173.933594 186.804688 170.488281 185.972656 C 162.757812 184.113281 155.023438 182.246094 147.308594 180.328125 C 146.570312 180.144531 145.925781 179.558594 145.238281 179.164062 C 146.09375 178.992188 147.027344 178.5 147.78125 178.699219 C 155.539062 180.746094 163.265625 182.921875 171.011719 184.996094 C 171.722656 185.183594 172.554688 184.925781 173.519531 185 Z M 173.519531 185 " fill-opacity="1" fill-rule="nonzero"/><path fill="#303033" d="M 136.695312 181.09375 C 132.648438 180.234375 128.855469 179.449219 125.085938 178.550781 C 124.628906 178.441406 124.320312 177.726562 123.949219 177.292969 C 124.464844 177.183594 125.019531 176.882812 125.496094 176.988281 C 130.984375 178.140625 136.464844 179.308594 141.921875 180.585938 C 142.652344 180.757812 143.234375 181.5625 143.882812 182.074219 C 143.121094 182.136719 142.335938 182.359375 141.605469 182.234375 C 140.039062 181.964844 138.5 181.511719 136.695312 181.09375 Z M 136.695312 181.09375 " fill-opacity="1" fill-rule="nonzero"/><path fill="#303033" d="M 180.980469 133.273438 C 183.488281 134.148438 185.800781 134.859375 188.003906 135.8125 C 188.660156 136.089844 189.019531 137.054688 189.519531 137.707031 C 188.722656 138.171875 187.847656 139.117188 187.148438 139 C 185.496094 138.742188 183.953125 137.902344 182.324219 137.425781 C 170.269531 133.921875 158.203125 130.472656 146.15625 126.949219 C 139.320312 124.949219 132.53125 122.820312 125.703125 120.808594 C 123.691406 120.214844 121.492188 120.117188 119.585938 119.296875 C 114.507812 117.121094 108.878906 117.210938 103.765625 115.257812 C 103.195312 115.042969 102.566406 114.945312 102.054688 114.636719 C 101.691406 114.417969 101.484375 113.941406 101.210938 113.582031 C 101.691406 113.398438 102.242188 112.96875 102.65625 113.070312 C 106.449219 114.027344 110.210938 115.140625 114.007812 116.085938 C 118.480469 117.195312 122.984375 118.179688 127.464844 119.246094 C 131.269531 120.152344 135.265625 120.65625 138.777344 122.230469 C 140.183594 122.859375 141.347656 123.03125 142.753906 123.3125 C 147.441406 124.253906 152.066406 125.546875 156.699219 126.765625 C 161.429688 128.007812 166.140625 129.339844 170.863281 130.609375 C 174.144531 131.496094 177.445312 132.339844 180.980469 133.273438 Z M 180.980469 133.273438 " fill-opacity="1" fill-rule="nonzero"/><path fill="#303033" d="M 159.539062 135.839844 C 154.726562 134.546875 150.054688 133.480469 145.445312 132.195312 C 137.972656 130.113281 130.558594 127.835938 123.09375 125.742188 C 118.828125 124.542969 114.496094 123.585938 110.21875 122.425781 C 109.433594 122.214844 108.78125 121.515625 108.0625 121.042969 C 108.832031 120.914062 109.648438 120.558594 110.371094 120.683594 C 113.945312 121.324219 117.53125 121.949219 121.050781 122.84375 C 132.675781 125.808594 144.296875 128.828125 155.882812 131.960938 C 163.21875 133.945312 170.648438 135.726562 177.71875 138.433594 C 181.945312 140.050781 186.402344 140.742188 190.496094 142.585938 C 191.222656 142.914062 191.632812 143.9375 192.1875 144.644531 C 191.269531 144.84375 190.265625 145.382812 189.449219 145.175781 C 186.066406 144.320312 182.203125 143.980469 179.523438 142.054688 C 176.566406 139.929688 173.339844 140.328125 170.359375 139.253906 C 166.863281 137.988281 163.265625 137.046875 159.539062 135.839844 Z M 159.539062 135.839844 " fill-opacity="1" fill-rule="nonzero"/><path fill="#303033" d="M 83.265625 122.023438 C 88.917969 122.847656 94.582031 123.640625 100.222656 124.5625 C 100.808594 124.660156 101.261719 125.550781 101.773438 126.074219 C 101.152344 126.140625 100.511719 126.355469 99.914062 126.261719 C 94.914062 125.464844 89.917969 124.652344 84.941406 123.730469 C 84.308594 123.617188 83.800781 122.859375 83.242188 122.214844 C 83.253906 122.023438 83.265625 122.023438 83.265625 122.023438 Z M 83.265625 122.023438 " fill-opacity="1" fill-rule="nonzero"/><path fill="#303033" d="M 148.089844 136.863281 C 144.160156 135.929688 140.316406 135.1875 136.480469 134.402344 C 136.175781 134.339844 135.929688 133.972656 135.660156 133.75 C 136.035156 133.53125 136.453125 133.078125 136.769531 133.140625 C 140.0625 133.777344 143.339844 134.5 146.617188 135.203125 C 147.203125 135.328125 147.820312 135.421875 148.359375 135.660156 C 149.179688 136.035156 149.949219 136.519531 150.742188 136.960938 C 149.886719 136.984375 149.03125 137.019531 148.089844 136.863281 Z M 148.089844 136.863281 " fill-opacity="1" fill-rule="nonzero"/><path fill="#303033" d="M 83.242188 109.773438 C 83.9375 109.542969 84.90625 109.035156 85.726562 109.207031 C 88.828125 109.863281 91.886719 110.742188 94.949219 111.558594 C 95.363281 111.667969 95.734375 111.921875 96.132812 112.109375 C 95.671875 112.441406 95.253906 112.921875 94.742188 113.066406 C 94.347656 113.175781 93.835938 112.875 93.378906 112.738281 C 90.066406 111.765625 86.753906 110.78125 83.242188 109.773438 Z M 83.242188 109.773438 " fill-opacity="1" fill-rule="nonzero"/><path fill="#303033" d="M 92.132812 116.460938 C 94.707031 117.011719 97.039062 117.488281 99.363281 118.015625 C 99.609375 118.070312 99.800781 118.382812 100.015625 118.574219 C 99.707031 118.667969 99.378906 118.878906 99.09375 118.832031 C 95.546875 118.1875 92.003906 117.511719 88.464844 116.816406 C 88.234375 116.773438 88.039062 116.53125 87.828125 116.382812 C 88.113281 116.222656 88.414062 115.90625 88.675781 115.929688 C 89.757812 116.027344 90.816406 116.238281 92.132812 116.460938 Z M 92.132812 116.460938 " fill-opacity="1" fill-rule="nonzero"/><path fill="#303033" d="M 125.226562 131.734375 C 124.097656 131.207031 123.195312 130.78125 122.289062 130.359375 C 123.558594 130.273438 124.847656 129.980469 126.082031 130.144531 C 127.613281 130.351562 129.09375 130.929688 130.59375 131.367188 C 131.117188 131.515625 131.613281 131.726562 132.125 131.910156 C 131.464844 132.214844 130.78125 132.828125 130.15625 132.769531 C 128.574219 132.613281 127.019531 132.167969 125.226562 131.734375 Z M 125.226562 131.734375 " fill-opacity="1" fill-rule="nonzero"/><path fill="#303033" d="M 83.242188 122.019531 C 83.230469 122.011719 83.21875 121.910156 83.21875 121.910156 C 83.21875 121.910156 83.179688 122.054688 83.21875 122.042969 C 83.265625 122.023438 83.253906 122.023438 83.242188 122.019531 Z M 83.242188 122.019531 " fill-opacity="1" fill-rule="nonzero"/></svg>